<?xml version="1.0" encoding="UTF-8" standalone="no"?>
<!DOCTYPE svg PUBLIC "-//W3C//DTD SVG 1.1//EN" "http://www.w3.org/Graphics/SVG/1.1/DTD/svg11.dtd">
<!-- Created with Vectornator (http://vectornator.io/) -->
<svg stroke-miterlimit="10" style="fill-rule:nonzero;clip-rule:evenodd;stroke-linecap:round;stroke-linejoin:round;" version="1.1" viewBox="0 0 365 280" xml:space="preserve" xmlns="http://www.w3.org/2000/svg" xmlns:xlink="http://www.w3.org/1999/xlink">
<defs/>
<g id="レイヤー-2-コピー">
<path d="M300.129 3.96878C299.043 3.79118 298.934 6.23188 298.934 6.23188C298.934 6.23188 294.584 41.0931 290.542 56.3035C285.651 74.7105 271.306 76.8915 271.306 76.8915C271.306 76.8915 269.618 77.0025 269.545 78.1175C269.473 79.2315 271.148 79.3435 271.148 79.3435C271.148 79.3435 277.387 81.1955 284.884 83.6495C291.736 85.8915 294.932 95.6505 295.791 98.6735C283.211 98.6275 270.597 98.4715 269.985 98.2025C268.675 97.6245 255.932 91.6455 250.812 92.4185C247.898 92.8585 247.386 95.1215 247.386 95.1215L246.914 166.63C246.914 166.63 246.794 170.386 246.914 170.59C247.831 172.151 256.678 171.005 261.813 166.724C265.796 163.403 270.389 158.709 272.343 156.666C272.908 156.075 272.931 156.002 273.506 155.628C274.081 155.254 275.455 155.408 275.455 155.408L296.137 155.314C295.533 157.233 292.302 167.238 288.059 169.207C284.274 170.963 269.891 176.814 269.891 176.814C269.891 176.814 268.804 177.501 268.822 178.102C268.841 178.703 269.985 179.202 269.985 179.202C269.985 179.202 285.693 186.076 289.725 200.419C293.728 214.66 298.589 275.039 298.589 275.039C298.589 275.039 299.27 276.67 299.877 276.736C300.484 276.802 301.166 275.039 301.166 275.039C301.166 275.039 304.022 220.171 311.067 199.539C318.181 178.706 328.984 179.831 328.984 179.831C328.984 179.831 331.631 179.263 331.592 178.008C331.554 176.753 328.952 176.373 328.952 176.373C328.952 176.373 319.046 174.7 311.602 169.458C305.975 165.497 304.686 158.118 304.372 155.283L324.269 155.188C324.269 155.188 325.462 155.15 325.903 155.283C326.344 155.415 326.336 155.68 326.815 156.446C328.186 158.64 331.475 163.277 336.496 166.221C343.267 170.192 350.307 171.491 351.866 170.904C353.426 170.318 353.123 168.735 353.123 168.735C353.123 168.735 353.152 113.095 353.155 110.366C353.158 107.637 359.041 104.402 359.001 101.974C358.961 99.5455 341.868 91.2665 338.665 91.5385C330.359 92.2435 328.258 97.7585 325.998 98.3285C325.125 98.5475 314.113 98.5825 304.121 98.6105C304.877 95.6275 307.285 87.9435 313.047 85.1895C321.11 81.3365 328.826 79.1545 328.826 79.1545C328.826 79.1545 330.659 78.9745 330.618 78.1805C330.577 77.3855 328.826 77.1115 328.826 77.1115C328.826 77.1115 317.339 72.2415 313.833 66.0785C304.4 49.4975 301.575 6.20048 301.575 6.20048C301.575 6.20048 301.214 4.14638 300.129 3.96878ZM275.643 103.828L293.402 103.86C293.402 103.86 294.77 103.851 294.943 104.142C295.115 104.434 295.192 104.745 294.628 106.091C293.396 109.034 290.829 114.227 287.022 117.47C283.351 120.597 278.524 121.907 275.675 122.436C274.217 122.707 274.327 122.553 273.726 122.247C273.125 121.942 273.254 121.241 273.254 121.242L273.192 107.16C273.192 107.16 273.017 105.414 273.632 104.583C274.246 103.751 275.643 103.828 275.643 103.828ZM324.08 103.828C324.08 103.828 325.481 103.756 326.092 104.583C326.667 105.361 326.532 107.129 326.532 107.129C326.531 107.137 326.532 107.173 326.532 107.191L326.469 121.242C326.469 121.242 326.591 121.946 325.998 122.247C325.396 122.553 325.506 122.707 324.049 122.436C321.2 121.907 316.373 120.597 312.702 117.47C308.895 114.227 306.328 109.034 305.095 106.091C304.531 104.745 304.64 104.434 304.812 104.142C304.977 103.865 306.321 103.86 306.321 103.86C306.324 103.86 306.334 103.86 306.352 103.86L324.08 103.828ZM274.386 130.734C274.617 130.688 274.946 130.693 275.675 130.828C278.524 131.357 283.351 132.667 287.022 135.795C290.829 139.038 293.396 144.23 294.628 147.173C295.192 148.52 295.115 148.862 294.943 149.153C294.77 149.444 293.402 149.405 293.402 149.405L275.643 149.468C275.643 149.468 274.246 149.545 273.632 148.713C273.017 147.882 273.192 146.136 273.192 146.136L273.254 132.054C273.254 132.054 273.125 131.353 273.726 131.048C274.027 130.896 274.155 130.781 274.386 130.734ZM325.337 130.734C325.569 130.781 325.697 130.896 325.998 131.048C326.599 131.353 326.469 132.054 326.469 132.054L326.532 146.136C326.532 146.136 326.706 147.882 326.092 148.713C325.477 149.545 324.08 149.468 324.08 149.468L306.321 149.405C306.321 149.405 304.953 149.444 304.781 149.153C304.608 148.862 304.531 148.52 305.095 147.173C306.328 144.23 308.895 139.037 312.702 135.795C316.373 132.668 321.2 131.357 324.049 130.828C324.777 130.693 325.106 130.688 325.337 130.734ZM42.6054 49.1055C41.9365 49.1255 41.8511 50.0795 41.8511 50.0795C41.8511 50.0795 40.4852 60.0595 34.9046 66.9585C30.4399 72.4785 15.4167 76.3255 15.4167 76.3255C15.4167 76.3255 14.712 76.5765 14.8194 77.0485C14.9269 77.5205 15.3852 77.6775 15.3852 77.6775C15.3852 77.6775 21.3446 79.9625 25.5692 81.8895C29.0641 83.4825 28.8696 84.9065 28.8696 84.9065C28.8696 84.9065 31.2354 137.519 29.4354 147.519C27.6354 157.519 27.0166 161.946 19.44 174.11C14.3388 182.301 9.38522 188.684 7.37003 191.209C6.76463 191.968 7.08713 192.121 7.08713 192.121C7.08713 192.121 7.00162 192.249 7.99873 191.932C12.9086 190.372 28.2899 184.847 38.3307 174.142C50.4106 161.263 52.1751 152.698 55.1469 141.578C58.1186 130.458 56.0584 84.4035 56.0584 84.4035C56.0584 84.4035 56.8375 82.6075 58.6673 81.4175C60.497 80.2275 63.6335 80.4745 63.6335 80.4745L110.53 80.6005C110.346 80.7735 102.523 88.1145 102.358 88.4265C102.191 88.7425 102.154 90.9345 102.452 91.3185C102.75 91.7025 110.003 98.1045 109.022 98.1395C108.04 98.1745 89.9499 98.6675 86.5159 97.8875C83.0819 97.1085 73.9108 93.6435 72.3088 93.5185C69.7927 93.3235 66.9402 93.1475 66.4938 93.1105C65.0617 92.9905 63.739 93.8805 63.2249 94.9965C62.7108 96.1125 62.5596 153.314 63.2878 154.34C64.016 155.365 68.6818 154.83 74.2576 152.642C79.8334 150.454 83.6139 146.504 85.3849 145.947C85.6349 145.868 97.3289 145.57 97.3289 145.57C97.3289 145.57 100.39 145.82 101.132 146.387C101.875 146.954 101.572 149.939 101.572 149.939L101.572 204.537C101.572 204.537 101.482 205.222 101.981 206.171C102.479 207.121 103.507 206.353 104.527 206.077C107.315 205.323 111.829 203.838 116.282 200.136C122.366 195.08 124.63 190.585 125.932 186.652C127.235 182.718 125.123 148.194 126.246 146.544C126.413 146.3 126.89 145.881 127.409 145.696C127.929 145.51 136.5 145.614 137.405 145.633C138.31 145.652 138.707 145.521 138.945 146.01C139.158 146.446 139.082 148.641 139.039 150.442C139.018 151.323 139.428 151.909 139.699 152.014C139.97 152.118 140.568 152.56 141.208 152.548C145.639 152.466 162.568 151.894 164.122 147.142C164.754 145.211 164.408 109.563 164.562 108.606C164.716 107.648 168.473 105.681 168.931 102.728C169.153 101.298 163.527 98.5085 157.71 95.5305C153.958 93.6095 149.565 92.5265 147.84 92.3875C145.781 92.2215 143.123 94.0415 141.46 95.6875C140.257 96.8785 139.948 98.0275 138.976 98.0765C135.209 98.2675 120.119 98.3505 118.608 98.2025C117.098 98.0535 125.166 91.5265 125.335 91.3505C125.504 91.1735 125.682 89.0235 125.366 88.5845C125.052 88.1465 117.568 80.6595 117.508 80.6005L189.802 80.7885C189.802 80.7885 196.846 82.2845 201.086 86.3525C204.418 89.5485 207.133 97.9805 206.681 98.2655C206.229 98.5495 176.343 98.0385 175.658 98.3905C174.354 99.0625 173.64 100.608 173.646 101.471C173.655 102.688 174.058 103.75 174.652 103.828C177.638 104.219 193.043 103.915 196.529 103.828C196.936 103.818 198.389 104.069 198.729 104.394C199.069 104.719 198.855 106.971 198.855 106.971L198.792 205.92C198.792 205.92 198.77 206.948 199.169 207.146C199.568 207.343 199.777 207.569 201.275 206.894C204.006 205.663 208.423 203.34 211.553 199.916C216.401 194.615 217.158 192.463 218.405 186.683C219.653 180.903 218.971 117.312 218.971 117.313C218.971 117.313 218.901 114.569 219.16 114.169C219.418 113.769 219.977 113.824 219.977 113.824L239.936 113.918C239.936 113.918 243.349 113.411 244.054 111.623C244.759 109.835 243.268 107.317 243.268 107.317C243.268 107.317 241.426 103.955 237.39 98.6425C234.79 95.2185 230.143 89.0175 228.118 89.0865C222.95 89.2635 213.785 98.2025 213.785 98.2025C213.785 98.2025 211.406 98.6565 211.019 98.2655C210.631 97.8735 212.008 91.2185 218.091 85.2835C224.175 79.3485 235.002 78.2425 235.002 78.2425C235.002 78.2425 237.267 78.0555 237.202 77.1745C237.136 76.2935 234.939 76.2945 234.939 76.2945C234.939 76.2945 222.516 73.2005 217.462 67.8385C211.224 61.2205 209.667 51.0855 209.667 51.0855C209.667 51.0855 209.435 49.0775 208.63 49.1365C207.825 49.1955 207.781 51.0855 207.781 51.0855C207.781 51.0855 205.027 62.4965 201.683 66.6755C197.236 72.2355 191.405 73.1825 191.405 73.1825L59.5788 73.4335C59.5788 73.4335 52.2067 71.0755 48.7976 64.8525C46.1625 60.0425 43.5484 50.0795 43.5484 50.0795C43.5484 50.0795 43.2744 49.0855 42.6054 49.1055ZM90.2249 104.08L136.902 104.08C136.902 104.08 137.95 104.112 138.473 104.677C138.997 105.242 139.008 106.343 139.008 106.343L139.228 137.649C139.228 137.649 139.129 138.997 138.599 139.598C138.07 140.199 137.153 139.975 137.153 139.975L90.1939 139.975C90.1939 139.975 89.3039 139.761 88.8739 139.378C88.4429 138.994 88.4649 138.435 88.4649 138.435L88.4339 127.622C88.4339 127.622 88.2299 126.493 88.9049 125.893C89.5799 125.294 89.4289 125.219 91.1369 125.233C100.387 125.312 130.271 125.525 133.036 125.045C134.715 124.753 131.312 119.845 129.484 119.387C127.656 118.929 89.5969 119.576 89.5969 119.576C89.5969 119.576 88.9709 119.581 88.6849 119.293C88.3989 119.004 88.4339 118.413 88.4339 118.413L88.3709 105.903C88.3709 105.903 88.2839 104.915 88.7479 104.457C89.2119 103.998 90.2249 104.08 90.2249 104.08ZM192.725 109.172L177.606 109.297C177.606 109.297 177.313 109.259 176.632 109.957C175.952 110.656 175.972 111.089 175.972 111.089L176.129 167.981C176.129 167.981 175.962 168.524 175.878 168.83C173.358 167.037 170.376 165.189 166.448 163.549C155.587 159.014 146.206 157.106 141.617 157.043C137.027 156.979 139.823 162.429 137.185 165.184C135.802 166.627 132.112 167.295 129.955 168.264C127.997 169.144 130.741 172.853 130.741 172.853C130.741 172.853 162.271 177.483 164.688 182.44C166.587 186.335 144.913 191.188 142.56 191.744C140.206 192.3 139.35 194.558 141.962 194.384C145.915 194.121 152.984 192.76 159.753 191.084C167.539 189.483 176.286 186.727 182.321 181.811C195.598 170.996 194.297 150.159 194.297 150.159L194.14 110.303C194.14 110.303 194.08 109.776 193.731 109.486C193.382 109.195 192.725 109.172 192.725 109.172ZM225.383 123.19C225.383 123.19 224.121 123.154 223.592 123.599L223.152 125.045L222.994 164.178C222.994 164.178 222.886 164.796 223.403 165.215C223.92 165.634 224.173 165.647 224.692 165.529C226.375 165.146 229.54 164.124 232.927 161.38C237.357 157.792 240.058 153.283 240.848 151.479C240.965 151.212 240.816 124.259 240.816 124.259C240.816 124.259 240.692 123.672 240.282 123.41C239.872 123.149 239.182 123.19 239.182 123.19L225.383 123.19ZM85.2899 156.948C80.7008 157.012 71.3199 158.888 60.4589 163.423C49.5979 167.959 44.1478 174.521 43.957 175.116C43.7662 175.712 43.9934 183.106 54.7697 187.28C62.5155 190.281 78.2662 193.846 84.9449 194.29C87.5569 194.463 86.7009 192.174 84.3469 191.618C81.994 191.062 60.3203 186.209 62.2191 182.314C64.6356 177.357 96.1659 172.727 96.1659 172.727C96.1659 172.727 98.9099 169.019 96.9519 168.138C94.7949 167.169 91.1049 166.502 89.7219 165.058C87.0839 162.303 89.8799 156.885 85.2899 156.948Z" fill="#000000" fill-rule="nonzero" opacity="1" stroke="none"/>
</g>
</svg>
