<?xml version="1.0" encoding="UTF-8" standalone="no"?>
<!-- Created with Vectornator (http://vectornator.io/) -->

<svg
   stroke-miterlimit="10"
   style="clip-rule:evenodd;fill-rule:nonzero;stroke-linecap:round;stroke-linejoin:round"
   version="1.1"
   viewBox="0 0 365 365"
   xml:space="preserve"
   id="svg7"
   sodipodi:docname="syhin_logo.svg"
   inkscape:version="1.1.2 (b8e25be833, 2022-02-05)"
   width="365"
   height="365"
   inkscape:export-filename="D:\OneDrive\Program\GitHub\siyuan-genshin-launcher\static\syhin_logo.png"
   inkscape:export-xdpi="134.66301"
   inkscape:export-ydpi="134.66301"
   xmlns:inkscape="http://www.inkscape.org/namespaces/inkscape"
   xmlns:sodipodi="http://sodipodi.sourceforge.net/DTD/sodipodi-0.dtd"
   xmlns="http://www.w3.org/2000/svg"
   xmlns:svg="http://www.w3.org/2000/svg"><sodipodi:namedview
   id="namedview9"
   pagecolor="#ffffff"
   bordercolor="#666666"
   borderopacity="1.0"
   inkscape:pageshadow="2"
   inkscape:pageopacity="0.0"
   inkscape:pagecheckerboard="true"
   showgrid="false"
   inkscape:zoom="3.1178572"
   inkscape:cx="243.91752"
   inkscape:cy="118.19015"
   inkscape:window-width="3840"
   inkscape:window-height="2054"
   inkscape:window-x="-11"
   inkscape:window-y="-11"
   inkscape:window-maximized="1"
   inkscape:current-layer="layer3"
   lock-margins="true" />
<defs
   id="defs2" />

<g
   inkscape:groupmode="layer"
   id="layer5"
   inkscape:label="base"
   style="display:none"
   sodipodi:insensitive="true"><g
     id="レイヤー-2-コピー-4"
     style="clip-rule:evenodd;fill-rule:nonzero;stroke-linecap:round;stroke-linejoin:round"><path
       d="m 300.129,3.96878 c -1.086,-0.1776 -1.195,2.2631 -1.195,2.2631 0,0 -4.35,34.86122 -8.392,50.07162 -4.891,18.407 -19.236,20.588 -19.236,20.588 0,0 -1.688,0.111 -1.761,1.226 -0.072,1.114 1.603,1.226 1.603,1.226 0,0 6.239,1.852 13.736,4.306 6.852,2.242 10.048,12.001 10.907,15.024 -12.58,-0.046 -25.194,-0.202 -25.806,-0.471 -1.31,-0.578 -14.053,-6.557 -19.173,-5.784 -2.914,0.44 -3.426,2.703 -3.426,2.703 l -0.472,71.5085 c 0,0 -0.12,3.756 0,3.96 0.917,1.561 9.764,0.415 14.899,-3.866 3.983,-3.321 8.576,-8.015 10.53,-10.058 0.565,-0.591 0.588,-0.664 1.163,-1.038 0.575,-0.374 1.949,-0.22 1.949,-0.22 l 20.682,-0.094 c -0.604,1.919 -3.835,11.924 -8.078,13.893 -3.785,1.756 -18.168,7.607 -18.168,7.607 0,0 -1.087,0.687 -1.069,1.288 0.019,0.601 1.163,1.1 1.163,1.1 0,0 15.708,6.874 19.74,21.217 4.003,14.241 8.864,74.62 8.864,74.62 0,0 0.681,1.631 1.288,1.697 0.607,0.066 1.289,-1.697 1.289,-1.697 0,0 2.856,-54.868 9.901,-75.5 7.114,-20.833 17.917,-19.708 17.917,-19.708 0,0 2.647,-0.568 2.608,-1.823 -0.038,-1.255 -2.64,-1.635 -2.64,-1.635 0,0 -9.906,-1.673 -17.35,-6.915 -5.627,-3.961 -6.916,-11.34 -7.23,-14.175 l 19.897,-0.095 c 0,0 1.193,-0.038 1.634,0.095 0.441,0.132 0.433,0.397 0.912,1.163 1.371,2.194 4.66,6.831 9.681,9.775 6.771,3.971 13.811,5.27 15.37,4.683 1.56,-0.586 1.257,-2.169 1.257,-2.169 0,0 0.029,-55.64 0.032,-58.369 0.003,-2.729 5.886,-5.964 5.846,-8.392 -0.04,-2.4285 -17.133,-10.7075 -20.336,-10.4355 -8.306,0.705 -10.407,6.22 -12.667,6.79 -0.873,0.219 -11.885,0.254 -21.877,0.282 0.756,-2.983 3.164,-10.667 8.926,-13.421 8.063,-3.853 15.779,-6.035 15.779,-6.035 0,0 1.833,-0.18 1.792,-0.974 -0.041,-0.795 -1.792,-1.069 -1.792,-1.069 0,0 -11.487,-4.87 -14.993,-11.033 C 304.4,49.4975 301.575,6.20048 301.575,6.20048 c 0,0 -0.361,-2.0541 -1.446,-2.2317 z m -24.486,99.85922 17.759,0.032 c 0,0 1.368,-0.009 1.541,0.282 0.172,0.292 0.249,0.603 -0.315,1.949 -1.232,2.943 -3.799,8.136 -7.606,11.379 -3.671,3.127 -8.498,4.437 -11.347,4.966 -1.458,0.271 -1.348,0.117 -1.949,-0.189 -0.601,-0.305 -0.472,-1.006 -0.472,-1.005 l -0.062,-14.082 c 0,0 -0.175,-1.746 0.44,-2.577 0.614,-0.832 2.011,-0.755 2.011,-0.755 z m 48.437,0 c 0,0 1.401,-0.072 2.012,0.755 0.575,0.778 0.44,2.546 0.44,2.546 -10e-4,0.008 0,0.044 0,0.062 l -0.063,14.051 c 0,0 0.122,0.704 -0.471,1.005 -0.602,0.306 -0.492,0.46 -1.949,0.189 -2.849,-0.529 -7.676,-1.839 -11.347,-4.966 -3.807,-3.243 -6.374,-8.436 -7.607,-11.379 -0.564,-1.346 -0.455,-1.657 -0.283,-1.949 0.165,-0.277 1.509,-0.282 1.509,-0.282 h 0.031 z m -49.694,26.906 c 0.231,-0.046 0.56,-0.041 1.289,0.094 2.849,0.529 7.676,1.839 11.347,4.967 3.807,3.243 6.374,8.435 7.606,11.378 0.564,1.347 0.487,1.689 0.315,1.98 -0.173,0.291 -1.541,0.252 -1.541,0.252 l -17.759,0.063 c 0,0 -1.397,0.077 -2.011,-0.755 -0.615,-0.831 -0.44,-2.577 -0.44,-2.577 l 0.062,-14.082 c 0,0 -0.129,-0.701 0.472,-1.006 0.301,-0.152 0.429,-0.267 0.66,-0.314 z m 50.951,0 c 0.232,0.047 0.36,0.162 0.661,0.314 0.601,0.305 0.471,1.006 0.471,1.006 l 0.063,14.082 c 0,0 0.174,1.746 -0.44,2.577 -0.615,0.832 -2.012,0.755 -2.012,0.755 l -17.759,-0.063 c 0,0 -1.368,0.039 -1.54,-0.252 -0.173,-0.291 -0.25,-0.633 0.314,-1.98 1.233,-2.943 3.8,-8.136 7.607,-11.378 3.671,-3.127 8.498,-4.438 11.347,-4.967 0.728,-0.135 1.057,-0.14 1.288,-0.094 z M 42.6054,49.1055 c -0.6689,0.02 -0.7543,0.974 -0.7543,0.974 0,0 -1.3659,9.98 -6.9465,16.879 -4.4647,5.52 -19.4879,9.367 -19.4879,9.367 0,0 -0.7047,0.251 -0.5973,0.723 0.1075,0.472 0.5658,0.629 0.5658,0.629 0,0 5.9594,2.285 10.184,4.212 3.4949,1.593 3.3004,3.017 3.3004,3.017 0,0 2.3658,52.6125 0.5658,62.6125 -1.8,10 -2.4188,14.427 -9.9954,26.591 -5.1012,8.191 -10.05478,14.574 -12.06997,17.099 -0.6054,0.759 -0.2829,0.912 -0.2829,0.912 0,0 -0.08551,0.128 0.9116,-0.189 4.90987,-1.56 20.29117,-7.085 30.33197,-17.79 12.0799,-12.879 13.8444,-21.444 16.8162,-32.564 2.9717,-11.12 0.9115,-57.1745 0.9115,-57.1745 0,0 0.7791,-1.796 2.6089,-2.986 1.8297,-1.19 4.9662,-0.943 4.9662,-0.943 l 46.8965,0.126 c -0.184,0.173 -8.007,7.514 -8.172,7.826 -0.167,0.316 -0.204,2.508 0.094,2.892 0.298,0.384 7.551,6.786 6.57,6.821 -0.982,0.035 -19.0721,0.528 -22.5061,-0.252 -3.434,-0.779 -12.6051,-4.244 -14.2071,-4.369 -2.5161,-0.195 -5.3686,-0.371 -5.815,-0.408 -1.4321,-0.12 -2.7548,0.77 -3.2689,1.886 -0.5141,1.116 -0.6653,58.3175 0.0629,59.3435 0.7282,1.025 5.394,0.49 10.9698,-1.698 5.5758,-2.188 9.3563,-6.138 11.1273,-6.695 0.25,-0.079 11.944,-0.377 11.944,-0.377 0,0 3.0611,0.25 3.8031,0.817 0.743,0.567 0.44,3.552 0.44,3.552 v 54.598 c 0,0 -0.09,0.685 0.409,1.634 0.498,0.95 1.526,0.182 2.546,-0.094 2.788,-0.754 7.302,-2.239 11.755,-5.941 6.084,-5.056 8.348,-9.551 9.65,-13.484 1.303,-3.934 -0.809,-38.458 0.314,-40.108 0.167,-0.244 0.644,-0.663 1.163,-0.848 0.52,-0.186 9.091,-0.082 9.996,-0.063 0.905,0.019 1.302,-0.112 1.54,0.377 0.213,0.436 0.137,2.631 0.094,4.432 -0.021,0.881 0.389,1.467 0.66,1.572 0.271,0.104 0.869,0.546 1.509,0.534 4.431,-0.082 21.36,-0.654 22.914,-5.406 0.632,-1.931 0.286,-37.579 0.44,-38.536 0.154,-0.958 3.911,-2.925 4.369,-5.878 0.222,-1.43 -5.404,-4.2195 -11.221,-7.1975 -3.752,-1.921 -8.145,-3.004 -9.87,-3.143 -2.059,-0.166 -4.717,1.654 -6.38,3.3 -1.203,1.191 -1.512,2.34 -2.484,2.389 -3.767,0.191 -18.857,0.274 -20.368,0.126 -1.51,-0.149 6.558,-6.676 6.727,-6.852 0.169,-0.177 0.347,-2.327 0.031,-2.766 -0.314,-0.438 -7.798,-7.925 -7.858,-7.984 l 72.294,0.188 c 0,0 7.044,1.496 11.284,5.564 3.332,3.196 6.047,11.628 5.595,11.913 -0.452,0.284 -30.338,-0.227 -31.023,0.125 -1.304,0.672 -2.018,2.2175 -2.012,3.0805 0.009,1.217 0.412,2.279 1.006,2.357 2.986,0.391 18.391,0.087 21.877,0 0.407,-0.01 1.86,0.241 2.2,0.566 0.34,0.325 0.126,2.577 0.126,2.577 l -0.063,98.949 c 0,0 -0.022,1.028 0.377,1.226 0.399,0.197 0.608,0.423 2.106,-0.252 2.731,-1.231 7.148,-3.554 10.278,-6.978 4.848,-5.301 5.605,-7.453 6.852,-13.233 1.248,-5.78 0.566,-69.371 0.566,-69.37 0,0 -0.07,-2.744 0.189,-3.144 0.258,-0.4 0.817,-0.345 0.817,-0.345 l 19.959,0.094 c 0,0 3.413,-0.507 4.118,-2.295 0.705,-1.788 -0.786,-4.306 -0.786,-4.306 0,0 -1.842,-3.362 -5.878,-8.6745 -2.6,-3.424 -7.247,-9.625 -9.272,-9.556 -5.168,0.177 -14.333,9.116 -14.333,9.116 0,0 -2.379,0.454 -2.766,0.063 -0.388,-0.392 0.989,-7.047 7.072,-12.982 6.084,-5.935 16.911,-7.041 16.911,-7.041 0,0 2.265,-0.187 2.2,-1.068 -0.066,-0.881 -2.263,-0.88 -2.263,-0.88 0,0 -12.423,-3.094 -17.477,-8.456 -6.238,-6.618 -7.795,-16.753 -7.795,-16.753 0,0 -0.232,-2.008 -1.037,-1.949 -0.805,0.059 -0.849,1.949 -0.849,1.949 0,0 -2.754,11.411 -6.098,15.59 -4.447,5.56 -10.278,6.507 -10.278,6.507 l -131.8262,0.251 c 0,0 -7.3721,-2.358 -10.7812,-8.581 -2.6351,-4.81 -5.2492,-14.773 -5.2492,-14.773 0,0 -0.274,-0.994 -0.943,-0.974 z M 90.2249,104.08 h 46.6771 c 0,0 1.048,0.032 1.571,0.597 0.524,0.565 0.535,1.666 0.535,1.666 l 0.22,31.306 c 0,0 -0.099,1.348 -0.629,1.949 -0.529,0.601 -1.446,0.377 -1.446,0.377 H 90.1939 c 0,0 -0.89,-0.214 -1.32,-0.597 -0.431,-0.384 -0.409,-0.943 -0.409,-0.943 l -0.031,-10.813 c 0,0 -0.204,-1.129 0.471,-1.729 0.675,-0.599 0.524,-0.674 2.232,-0.66 9.2501,0.079 39.1341,0.292 41.8991,-0.188 1.679,-0.292 -1.724,-5.2 -3.552,-5.658 -1.828,-0.458 -39.8871,0.189 -39.8871,0.189 0,0 -0.626,0.005 -0.912,-0.283 -0.286,-0.289 -0.251,-0.88 -0.251,-0.88 l -0.063,-12.51 c 0,0 -0.087,-0.988 0.377,-1.446 0.464,-0.459 1.477,-0.377 1.477,-0.377 z m 102.5001,5.092 -15.119,0.125 c 0,0 -0.293,-0.038 -0.974,0.66 -0.68,0.699 -0.66,1.132 -0.66,1.132 l 0.157,56.892 c 0,0 -0.167,0.543 -0.251,0.849 -2.52,-1.793 -5.502,-3.641 -9.43,-5.281 -10.861,-4.535 -20.242,-6.443 -24.831,-6.506 -4.59,-0.064 -1.794,5.386 -4.432,8.141 -1.383,1.443 -5.073,2.111 -7.23,3.08 -1.958,0.88 0.786,4.589 0.786,4.589 0,0 31.53,4.63 33.947,9.587 1.899,3.895 -19.775,8.748 -22.128,9.304 -2.354,0.556 -3.21,2.814 -0.598,2.64 3.953,-0.263 11.022,-1.624 17.791,-3.3 7.786,-1.601 16.533,-4.357 22.568,-9.273 13.277,-10.815 11.976,-31.652 11.976,-31.652 l -0.157,-39.856 c 0,0 -0.06,-0.527 -0.409,-0.817 -0.349,-0.291 -1.006,-0.314 -1.006,-0.314 z m 32.658,14.018 c 0,0 -1.262,-0.036 -1.791,0.409 l -0.44,1.446 -0.158,39.133 c 0,0 -0.108,0.618 0.409,1.037 0.517,0.419 0.77,0.432 1.289,0.314 1.683,-0.383 4.848,-1.405 8.235,-4.149 4.43,-3.588 7.131,-8.097 7.921,-9.901 0.117,-0.267 -0.032,-27.22 -0.032,-27.22 0,0 -0.124,-0.587 -0.534,-0.849 -0.41,-0.261 -1.1,-0.22 -1.1,-0.22 z M 85.2899,156.948 c -4.5891,0.064 -13.97,1.94 -24.831,6.475 -10.861,4.536 -16.3111,11.098 -16.5019,11.693 -0.1908,0.596 0.0364,7.99 10.8127,12.164 7.7458,3.001 23.4965,6.566 30.1752,7.01 2.612,0.173 1.756,-2.116 -0.598,-2.672 -2.3529,-0.556 -24.0266,-5.409 -22.1278,-9.304 2.4165,-4.957 33.9468,-9.587 33.9468,-9.587 0,0 2.744,-3.708 0.786,-4.589 -2.157,-0.969 -5.847,-1.636 -7.23,-3.08 -2.638,-2.755 0.158,-8.173 -4.432,-8.11 z"
       fill="#000000"
       fill-rule="nonzero"
       opacity="1"
       stroke="none"
       id="path4-5"
       sodipodi:nodetypes="cccccccccccccccsccccccccscccccccccccccsscccccsccccccccccccccccccccccccccccccccccccccccccccccccccccscccccccsccccsccccccsccccscscccccccccccscsccccccccccccccccccccsccccccccccsccccsccccccsccccccsccccccccccccccsccccccccccccccccccccccccccccccscccccccccccccscccc" /></g></g><g
   inkscape:groupmode="layer"
   id="layer6"
   inkscape:label="shen"><g
     id="レイヤー-2-コピー-4-0"
     style="clip-rule:evenodd;display:inline;fill-rule:nonzero;stroke-linecap:round;stroke-linejoin:round"
     transform="translate(0,46)"><path
       d="m 300.129,3.96878 c -1.086,-0.1776 -1.195,2.2631 -1.195,2.2631 0,0 -4.35,34.86122 -8.392,50.07162 -4.891,18.407 -19.236,20.588 -19.236,20.588 0,0 -1.688,0.111 -1.761,1.226 -0.072,1.114 1.603,1.226 1.603,1.226 0,0 6.239,1.852 13.736,4.306 6.852,2.242 10.048,12.001 10.907,15.024 -12.58,-0.046 -25.194,-0.202 -25.806,-0.471 -1.31,-0.578 -14.053,-6.557 -19.173,-5.784 -2.914,0.44 -3.426,2.703 -3.426,2.703 l -0.472,71.5085 c 0,0 -0.12,3.756 0,3.96 0.917,1.561 9.764,0.415 14.899,-3.866 3.983,-3.321 8.576,-8.015 10.53,-10.058 0.565,-0.591 0.588,-0.664 1.163,-1.038 0.575,-0.374 1.949,-0.22 1.949,-0.22 l 20.682,-0.094 c -0.604,1.919 -3.835,11.924 -8.078,13.893 -3.785,1.756 -18.168,7.607 -18.168,7.607 0,0 -1.087,0.687 -1.069,1.288 0.019,0.601 1.163,1.1 1.163,1.1 0,0 15.708,6.874 19.74,21.217 4.003,14.241 8.864,74.62 8.864,74.62 0,0 0.681,1.631 1.288,1.697 0.607,0.066 1.289,-1.697 1.289,-1.697 0,0 2.856,-54.868 9.901,-75.5 7.114,-20.833 17.917,-19.708 17.917,-19.708 0,0 2.647,-0.568 2.608,-1.823 -0.038,-1.255 -2.64,-1.635 -2.64,-1.635 0,0 -9.906,-1.673 -17.35,-6.915 -5.627,-3.961 -6.916,-11.34 -7.23,-14.175 l 19.897,-0.095 c 0,0 1.193,-0.038 1.634,0.095 0.441,0.132 0.433,0.397 0.912,1.163 1.371,2.194 4.66,6.831 9.681,9.775 6.771,3.971 13.811,5.27 15.37,4.683 1.56,-0.586 1.257,-2.169 1.257,-2.169 0,0 0.029,-55.64 0.032,-58.369 0.003,-2.729 5.886,-5.964 5.846,-8.392 -0.04,-2.4285 -17.133,-10.7075 -20.336,-10.4355 -8.306,0.705 -10.407,6.22 -12.667,6.79 -0.873,0.219 -11.885,0.254 -21.877,0.282 0.756,-2.983 3.164,-10.667 8.926,-13.421 8.063,-3.853 15.779,-6.035 15.779,-6.035 0,0 1.833,-0.18 1.792,-0.974 -0.041,-0.795 -1.792,-1.069 -1.792,-1.069 0,0 -11.487,-4.87 -14.993,-11.033 C 304.4,49.4975 301.575,6.20048 301.575,6.20048 c 0,0 -0.361,-2.0541 -1.446,-2.2317 z m -24.486,99.85922 17.759,0.032 c 0,0 1.368,-0.009 1.541,0.282 0.172,0.292 0.249,0.603 -0.315,1.949 -1.232,2.943 -3.799,8.136 -7.606,11.379 -3.671,3.127 -8.498,4.437 -11.347,4.966 -1.458,0.271 -1.348,0.117 -1.949,-0.189 -0.601,-0.305 -0.472,-1.006 -0.472,-1.005 l -0.062,-14.082 c 0,0 -0.175,-1.746 0.44,-2.577 0.614,-0.832 2.011,-0.755 2.011,-0.755 z m 48.437,0 c 0,0 1.401,-0.072 2.012,0.755 0.575,0.778 0.44,2.546 0.44,2.546 -10e-4,0.008 0,0.044 0,0.062 l -0.063,14.051 c 0,0 0.122,0.704 -0.471,1.005 -0.602,0.306 -0.492,0.46 -1.949,0.189 -2.849,-0.529 -7.676,-1.839 -11.347,-4.966 -3.807,-3.243 -6.374,-8.436 -7.607,-11.379 -0.564,-1.346 -0.455,-1.657 -0.283,-1.949 0.165,-0.277 1.509,-0.282 1.509,-0.282 h 0.031 z m -49.694,26.906 c 0.231,-0.046 0.56,-0.041 1.289,0.094 2.849,0.529 7.676,1.839 11.347,4.967 3.807,3.243 6.374,8.435 7.606,11.378 0.564,1.347 0.487,1.689 0.315,1.98 -0.173,0.291 -1.541,0.252 -1.541,0.252 l -17.759,0.063 c 0,0 -1.397,0.077 -2.011,-0.755 -0.615,-0.831 -0.44,-2.577 -0.44,-2.577 l 0.062,-14.082 c 0,0 -0.129,-0.701 0.472,-1.006 0.301,-0.152 0.429,-0.267 0.66,-0.314 z m 50.951,0 c 0.232,0.047 0.36,0.162 0.661,0.314 0.601,0.305 0.471,1.006 0.471,1.006 l 0.063,14.082 c 0,0 0.174,1.746 -0.44,2.577 -0.615,0.832 -2.012,0.755 -2.012,0.755 l -17.759,-0.063 c 0,0 -1.368,0.039 -1.54,-0.252 -0.173,-0.291 -0.25,-0.633 0.314,-1.98 1.233,-2.943 3.8,-8.136 7.607,-11.378 3.671,-3.127 8.498,-4.438 11.347,-4.967 0.728,-0.135 1.057,-0.14 1.288,-0.094 z M 189.802,80.7885 c 0,0 7.044,1.496 11.284,5.564 3.332,3.196 6.047,11.628 5.595,11.913 -0.452,0.284 -30.338,-0.227 -31.023,0.125 -1.304,0.672 -2.018,2.2175 -2.012,3.0805 0.009,1.217 0.412,2.279 1.006,2.357 2.986,0.391 18.391,0.087 21.877,0 0.407,-0.01 1.86,0.241 2.2,0.566 0.34,0.325 0.126,2.577 0.126,2.577 l -0.063,98.949 c 0,0 -0.022,1.028 0.377,1.226 0.399,0.197 0.608,0.423 2.106,-0.252 2.731,-1.231 7.148,-3.554 10.278,-6.978 4.848,-5.301 5.605,-7.453 6.852,-13.233 1.248,-5.78 0.566,-69.371 0.566,-69.37 0,0 -0.07,-2.744 0.189,-3.144 0.258,-0.4 0.817,-0.345 0.817,-0.345 l 19.959,0.094 c 0,0 3.413,-0.507 4.118,-2.295 0.705,-1.788 -0.786,-4.306 -0.786,-4.306 0,0 -1.842,-3.362 -5.878,-8.6745 -2.6,-3.424 -7.247,-9.625 -9.272,-9.556 -5.168,0.177 -14.333,9.116 -14.333,9.116 0,0 -2.379,0.454 -2.766,0.063 -0.388,-0.392 0.989,-7.047 7.072,-12.982 6.084,-5.935 16.911,-7.041 16.911,-7.041 0,0 2.265,-0.187 2.2,-1.068 -0.066,-0.881 -2.263,-0.88 -2.263,-0.88 0,0 -12.423,-3.094 -17.477,-8.456 -6.238,-6.618 -7.795,-16.753 -7.795,-16.753 0,0 -0.232,-2.008 -1.037,-1.949 -0.805,0.059 -0.849,1.949 -0.849,1.949 0,0 -2.754,11.411 -6.098,15.59 -4.447,5.56 -10.278,6.507 -10.278,6.507 -5.85386,0.734804 -10.06514,6.348321 -1.603,7.606 z m 2.923,28.3835 -15.119,0.125 c 0,0 -0.293,-0.038 -0.974,0.66 -0.68,0.699 -0.66,1.132 -0.66,1.132 l 0.157,56.892 c 0,0 -0.167,0.543 -0.251,0.849 -2.86483,6.71194 -3.92587,9.46293 -11.19,13.61 -5.13157,2.98783 -19.775,8.748 -22.128,9.304 -2.354,0.556 -3.21,2.814 -0.598,2.64 3.953,-0.263 11.022,-1.624 17.791,-3.3 7.786,-1.601 16.533,-4.357 22.568,-9.273 13.277,-10.815 11.976,-31.652 11.976,-31.652 l -0.157,-39.856 c 0,0 -0.06,-0.527 -0.409,-0.817 -0.349,-0.291 -1.006,-0.314 -1.006,-0.314 z m 32.658,14.018 c 0,0 -1.262,-0.036 -1.791,0.409 l -0.44,1.446 -0.158,39.133 c 0,0 -0.108,0.618 0.409,1.037 0.517,0.419 0.77,0.432 1.289,0.314 1.683,-0.383 4.848,-1.405 8.235,-4.149 4.43,-3.588 7.131,-8.097 7.921,-9.901 0.117,-0.267 -0.032,-27.22 -0.032,-27.22 0,0 -0.124,-0.587 -0.534,-0.849 -0.41,-0.261 -1.1,-0.22 -1.1,-0.22 z"
       fill="#000000"
       fill-rule="nonzero"
       opacity="1"
       stroke="none"
       id="path4-5-5"
       sodipodi:nodetypes="cccccccccccccccsccccccccscccccccccccccsscccccscccccccccccccccccccccccccccccccccccccccccccccccccccccccccccsccccccccccsccccsccccccscccccccccccccccccccccccsccccccc" /></g></g><g
   inkscape:groupmode="layer"
   id="layer1"
   inkscape:label="Layer 1"
   style="display:inline"><path
     d="m 45.232713,147.15727 c -3.855101,-0.0627 -11.735582,-1.90178 -20.859426,-6.34744 -9.123848,-4.44664 -13.702237,-10.87937 -13.86252,-11.46265 -0.160284,-0.58426 0.03058,-7.83259 9.083274,-11.92436 6.506905,-2.94188 19.738371,-6.43665 25.348851,-6.8719 2.194227,-0.16959 1.475139,2.07431 -0.502351,2.61936 -1.976569,0.54505 -20.183686,5.30244 -18.588588,9.12071 2.029995,4.85934 28.517208,9.39813 28.517208,9.39813 0,0 2.305113,3.63495 0.660283,4.4986 -1.812,0.9499 -4.911806,1.60376 -6.073604,3.01931 -2.216067,2.70074 0.132729,8.01199 -3.723127,7.95024 z"
     style="opacity:1;fill:#000000;fill-rule:nonzero;stroke:none;stroke-width:0.907469"
     id="path938" /></g><g
   inkscape:groupmode="layer"
   id="layer2"
   inkscape:label="Layer 2"><path
     d="m 42.453765,200.10163 c -3.931695,0.064 -11.968749,1.94 -21.27387,6.475 -9.305125,4.536 -13.9744795,11.098 -14.1379468,11.693 -0.1634672,0.596 0.031186,7.99 9.2637438,12.164 6.636188,3.001 20.130543,6.566 25.852496,7.01 2.237822,0.173 1.504447,-2.116 -0.512335,-2.672 -2.015839,-0.556 -20.584703,-5.409 -18.957913,-9.304 2.070328,-4.957 29.083801,-9.587 29.083801,-9.587 0,0 2.350913,-3.708 0.673403,-4.589 -1.848002,-0.969 -5.009397,-1.636 -6.194278,-3.08 -2.260097,-2.755 0.135366,-8.173 -3.797101,-8.11 z"
     style="opacity:1;fill:#000000;fill-rule:nonzero;stroke:none;stroke-width:0.925606"
     id="path1054" /></g><g
   inkscape:groupmode="layer"
   id="layer3"
   inkscape:label="Layer 3"><path
     d="m 11.402709,179.85749 c 0,0 -0.036,1.262 0.409,1.791 l 1.445999,0.44 39.133,0.158 c 0,0 0.618,0.108 1.037,-0.409 0.419,-0.517 0.432,-0.77 0.314,-1.289 -0.383,-1.683 -1.405,-4.848 -4.149,-8.235 -3.588,-4.43 -8.097,-7.131 -9.901001,-7.921 -0.267,-0.117 -27.219998,0.032 -27.219998,0.032 0,0 -0.587,0.124 -0.849,0.534 -0.261,0.41 -0.22,1.1 -0.22,1.1 z"
     style="opacity:1;fill:#000000;fill-rule:nonzero;stroke:none"
     id="path1180" /></g><g
   inkscape:groupmode="layer"
   id="layer4"
   inkscape:label="Layer 4"><path
     d="m 72.324152,94.8787 c -0.490755,0.02 -0.553412,0.974 -0.553412,0.974 0,0 -1.002126,9.98 -5.096472,16.879 -3.275639,5.52 -14.297786,9.367 -14.297786,9.367 0,0 -0.517021,0.251 -0.438224,0.723 0.07887,0.472 0.415113,0.629 0.415113,0.629 0,0 4.372263,2.285 7.471746,4.212 2.564121,1.593 2.421422,3.017 2.421422,3.017 0,0 1.735728,52.61251 0.415112,62.61251 -1.320615,10 -1.774612,14.427 -7.333374,26.591 -3.742624,8.191 6.49295,10.737 13.859635,0.032 8.86272,-12.879 10.157289,-21.444 12.337625,-32.564 2.180262,-11.12 0.668745,-57.17451 0.668745,-57.17451 0,0 0.571606,-1.796 1.914084,-2.986 1.342405,-1.19 3.643577,-0.943 3.643577,-0.943 l 34.406787,0.126 c -0.13499,0.173 -5.87454,7.514 -5.99558,7.826 -0.12253,0.316 -0.14968,2.508 0.0689,2.892 0.21863,0.384 5.53997,6.786 4.82025,6.821 -0.72048,0.035 -13.99273,0.528 -16.51217,-0.252 -2.51945,-0.779 -9.248049,-4.244 -10.423396,-4.369 -1.846,-0.195 -3.938808,-0.371 -4.266321,-0.408 -1.050695,-0.12 -2.021127,0.77 -2.39831,1.886 -0.377182,1.116 -0.488114,58.31751 0.04615,59.34351 0.534261,1.025 3.957442,0.49 8.048267,-1.698 4.090823,-2.188 6.86449,-6.138 8.16383,-6.695 0.18342,-0.079 8.76301,-0.377 8.76301,-0.377 0,0 2.24585,0.25 2.79024,0.817 0.54512,0.567 0.32281,3.552 0.32281,3.552 v 54.598 c 0,0 -0.066,0.685 0.30007,1.634 0.36538,0.95 1.1196,0.182 1.86794,-0.094 2.04549,-0.754 5.3573,-2.239 8.62435,-5.941 4.46368,-5.056 6.12472,-9.551 7.07996,-13.484 0.95599,-3.934 -0.59353,-38.458 0.23038,-40.108 0.12253,-0.244 0.47248,-0.663 0.85326,-0.848 0.38151,-0.186 6.66984,-0.082 7.33382,-0.063 0.66397,0.019 0.95525,-0.112 1.12986,0.377 0.15628,0.436 0.10051,2.631 0.0689,4.432 -0.0154,0.881 0.2854,1.467 0.48423,1.572 0.19882,0.104 0.63756,0.546 1.10711,0.534 3.25091,-0.082 15.67131,-0.654 16.81144,-5.406 0.46368,-1.931 0.20983,-37.579 0.32282,-38.536 0.11298,-0.958 2.8694,-2.925 3.20542,-5.878 0.16288,-1.43 -3.96478,-4.21951 -8.23257,-7.19751 -2.75275,-1.921 -5.97578,-3.004 -7.24138,-3.143 -1.51063,-0.166 -3.46074,1.654 -4.68085,3.3 -0.8826,1.191 -1.10931,2.34 -1.82243,2.389 -2.76376,0.191 -13.83492,0.274 -14.9435,0.126 -1.10785,-0.149 4.81145,-6.676 4.93544,-6.852 0.12398,-0.177 0.25458,-2.327 0.0227,-2.766 -0.23037,-0.438 -5.7212,-7.925 -5.76522,-7.984 l 53.0403,0.188 c 5.12573,-3.34921 1.17608,-7.606 1.17608,-7.606 l -96.717586,0.251 c 0,0 -5.408724,-2.358 -7.909896,-8.581 -1.933307,-4.81 -3.851207,-14.773 -3.851207,-14.773 0,0 -0.201027,-0.994 -0.691856,-0.974 z m 34.937238,54.97451 h 34.24582 c 0,0 0.76889,0.032 1.1526,0.597 0.38445,0.565 0.39252,1.666 0.39252,1.666 l 0.16141,31.306 c 0,0 -0.0726,1.348 -0.46149,1.949 -0.38811,0.601 -1.06088,0.377 -1.06088,0.377 h -34.45272 c 0,0 -0.65298,-0.214 -0.96845,-0.597 -0.31622,-0.384 -0.30008,-0.943 -0.30008,-0.943 l -0.0228,-10.813 c 0,0 -0.14968,-1.129 0.34556,-1.729 0.49523,-0.599 0.38445,-0.674 1.63756,-0.66 6.78658,0.079 28.71171,0.292 30.74033,-0.188 1.23183,-0.292 -1.26486,-5.2 -2.60602,-5.658 -1.34116,-0.458 -29.26417,0.189 -29.26417,0.189 0,0 -0.45928,0.005 -0.66911,-0.283 -0.20983,-0.289 -0.18415,-0.88 -0.18415,-0.88 l -0.0463,-12.51 c 0,0 -0.0638,-0.988 0.2766,-1.446 0.34042,-0.459 1.08364,-0.377 1.08364,-0.377 z m 62.84154,64.75 c 0,0 -0.23906,-0.34609 0,0 -1.84886,-1.793 -4.03668,-3.641 -6.91856,-5.281 -7.96844,-4.535 -14.85104,-6.443 -18.21788,-6.506 -3.36757,-0.064 -1.31622,5.386 -3.25165,8.141 -1.01468,1.443 -3.72193,2.111 -5.30447,3.08 -1.43654,0.88 0.57667,4.589 0.57667,4.589 0,0 23.13277,4.63 24.90606,9.587 1.39325,3.895 -14.50842,8.748 -16.23476,9.304 -1.72707,0.556 -2.35509,2.814 -0.43873,2.64 2.90022,-0.263 8.08656,-1.624 13.0528,-3.3 5.71241,-1.601 12.12986,-4.357 16.55759,-9.273 -1.00852,-11.04545 -2.84425,-10.16753 -4.72707,-12.981 z m -66.46223,-11.882 c -3.36691,0.064 -10.249437,1.94 -18.217881,6.475 -7.968445,4.536 -11.967046,11.098 -12.107032,11.693 -0.139985,0.596 0.02671,7.99 7.933008,12.164 5.6829,3.001 17.238792,6.566 22.138795,7.01 1.91636,0.173 1.28832,-2.116 -0.43874,-2.672 -1.72627,-0.556 -17.627718,-5.409 -16.234617,-9.304 1.772926,-4.957 24.905927,-9.587 24.905927,-9.587 0,0 2.0132,-3.708 0.57666,-4.589 -1.58253,-0.969 -4.28979,-1.636 -5.30447,-3.08 -1.93543,-2.755 0.11593,-8.173 -3.25165,-8.11 z"
     style="opacity:1;fill:#000000;fill-rule:nonzero;stroke:none;stroke-width:0.856549"
     id="path892"
     sodipodi:nodetypes="ccccccccscsccccccsscccscscccccccccccscsccccccccccccccccccsccccccccccccccscccccccccccccccccccccccccscccccc" /></g></svg>
