<?xml version="1.0" encoding="UTF-8" standalone="no"?>
<!-- Created with Inkscape (http://www.inkscape.org/) -->

<svg
   width="128mm"
   height="128mm"
   viewBox="0 0 512.00001 512.00001"
   version="1.1"
   id="svg5"
   inkscape:version="1.1.2 (b8e25be833, 2022-02-05)"
   sodipodi:docname="loading-pure.svg"
   xmlns:inkscape="http://www.inkscape.org/namespaces/inkscape"
   xmlns:sodipodi="http://sodipodi.sourceforge.net/DTD/sodipodi-0.dtd"
   xmlns="http://www.w3.org/2000/svg"
   xmlns:svg="http://www.w3.org/2000/svg">
  <sodipodi:namedview
     id="namedview7"
     pagecolor="#ffffff"
     bordercolor="#666666"
     borderopacity="1.0"
     inkscape:pageshadow="2"
     inkscape:pageopacity="0.0"
     inkscape:pagecheckerboard="true"
     inkscape:document-units="mm"
     showgrid="false"
     inkscape:zoom="0.51224046"
     inkscape:cx="495.86087"
     inkscape:cy="894.11133"
     inkscape:window-width="3840"
     inkscape:window-height="2054"
     inkscape:window-x="-11"
     inkscape:window-y="-11"
     inkscape:window-maximized="1"
     inkscape:current-layer="layer1"
     width="128mm" />
  <defs
     id="defs2" />
  <g
     inkscape:label="图层 1"
     inkscape:groupmode="layer"
     id="layer1">
    <g
       id="g839"
       transform="matrix(0.05167643,0,0,0.05167643,160.00604,219.20878)"
       style="fill:#656565;fill-opacity:1">
      <path
         d="m 436.667,611.334 c 27.604,60.544 -60.667,62 -60.667,62 1.333,33.333 38.667,34.667 38.667,34.667 56,-8 50.667,-66.667 50.667,-66.667 -2,-93.334 -142,-90.667 -142,-90.667 -115.333,10.667 -196,-132 -196,-132 -31.333,109.998 22,167.334 22,167.334 81.132,92 208,13.333 208,13.333 59.999,-34.667 79.333,12 79.333,12 z M 471,512 C 266,326 380,151 380,151 c -7,-9 -145.5,57 -122,190 24.384,138.002 213,171 213,171 z"
         p-id="1462"
         id="path824"
         style="fill:#656565;fill-opacity:1">
        <animate
           attributeName="fill"
           values="white; #656565; white"
           dur="2s"
           fill="freeze"
           repeatCount="indefinite" />
      </path>
      <path
         d="m 615.965,718.018 -21.334,13.334 c 0,0 -80,-15.346 -76.334,-79.346 0,0 -3.332,-106.669 184.334,-125.336 0,0 218.334,-28.67 100.334,-264.67 0,0 -1,185.523 -213,259.262 0,0 -71.965,37.738 -84.483,88.738 C 492.964,559 421,521.262 421,521.262 209,447.523 208,262 208,262 90,498 308.333,526.67 308.333,526.67 c 187.665,18.667 184.333,125.336 184.333,125.336 3.667,64 -76.333,79.346 -76.333,79.346 L 395,718.018 c -21,-3 -31.333,5.329 -31.333,5.329 108,95.343 141.815,196.334 141.815,196.334 0,0 33.815,-100.991 141.815,-196.334 0,0 -10.332,-8.329 -31.332,-5.329 z M 505.482,848.343 c -3.518,-12.666 -34.148,-56.676 -34.148,-56.676 19.667,-7.666 34.148,-23 34.148,-23 0,0 14.481,15.334 34.149,23 0,0 -30.631,44.01 -34.149,56.676 z m 0,-107.01 c -23.851,31 -61.148,16.667 -61.148,16.667 43.333,-7.667 61.148,-51.667 61.148,-51.667 0,0 17.815,44 61.149,51.667 0,0 -37.297,14.333 -61.149,-16.667 z"
         p-id="1463"
         id="path826"
         style="fill:#656565;fill-opacity:1">
        <animate
           attributeName="fill"
           values="white; #656565; white"
           dur="2s"
           fill="freeze"
           repeatCount="indefinite" />
      </path>
      <path
         d="m 752.965,341 c 23.5,-133 -115,-199 -122,-190 0,0 114,175 -91,361 0,0 188.615,-32.998 213,-171 z m 130.666,77.667 c 0,0 -80.666,142.667 -196,132 0,0 -140,-2.667 -142,90.667 0,0 -5.334,58.667 50.666,66.667 0,0 37.334,-1.334 38.668,-34.667 0,0 -88.271,-1.456 -60.668,-62 0,0 19.334,-46.667 79.334,-12 0,0 126.867,78.667 208,-13.333 0,0 53.334,-57.337 22,-167.334 z"
         p-id="1464"
         id="path828"
         style="fill:#656565;fill-opacity:1">
        <animate
           attributeName="fill"
           values="white; #656565; white"
           dur="2s"
           fill="freeze"
           repeatCount="indefinite" />
      </path>
    </g>
    <g
       id="g880"
       transform="matrix(0.05167643,0,0,0.05167643,370.01114,221.10877)"
       style="fill:#656565;fill-opacity:1">
      <path
         d="m 475,257 c 0,0 35.999,-28 37,-39 V 97 c 0,0 -72,148 -108,192 l 34,-10 c 0,0 49.999,43 74,184 v -91 c 0,0 -20,-101 -37,-115 z M 512,97 v 121 c 1.001,11 37,39 37,39 -17,14 -37,115 -37,115 v 91 c 24.001,-141 74,-184 74,-184 l 34,10 C 584,245 512,97 512,97 Z"
         p-id="1903"
         id="path841"
         style="fill:#656565;fill-opacity:1">
        <animate
           attributeName="fill"
           values="white; #656565; white"
           dur="2s"
           fill="freeze"
           repeatCount="indefinite" />
      </path>
      <path
         d="m 492.592,409.814 -42.58,-18.126 -0.012,-0.021 -0.002,0.015 -0.015,-0.006 0.013,0.022 -5.33,45.969 c 0,0 59.007,56.596 67.194,60.545 l 0.064,0.111 0.004,-0.077 0.07,0.035 -0.065,-0.113 c 0.624,-9.067 -19.341,-88.354 -19.341,-88.354 z m 209.732,-64.216 c 0,0 42.248,17.176 52.274,12.542 l 104.789,-60.5 c 0,0 -164.171,11.646 -220.276,2.47 l 25.66,24.445 c 0,0 -12.239,64.8 -122.349,156.085 l 78.809,-45.5 c 0,0.001 77.469,-67.819 81.093,-89.542 z m 157.065,-47.957 -104.789,60.5 c -9.026,6.367 -15.275,51.543 -15.275,51.543 -20.624,-7.723 -118.093,25.457 -118.093,25.457 l -78.809,45.5 c 134.11,-49.714 196.349,-27.914 196.349,-27.914 l 8.34,34.445 C 767.217,433.995 859.389,297.641 859.389,297.641 Z"
         p-id="1904"
         id="path843"
         style="fill:#656565;fill-opacity:1">
        <animate
           attributeName="fill"
           values="white; #656565; white"
           dur="2s"
           fill="freeze"
           repeatCount="indefinite" />
      </path>
      <path
         d="m 578.779,437.241 -5.592,-45.938 0.012,-0.021 -0.014,0.006 -0.002,-0.016 -0.013,0.022 -42.476,18.369 c 0,0 -19.51,79.399 -18.836,88.464 l -0.063,0.111 c 0.021,-0.009 0.047,-0.024 0.068,-0.035 0.002,0.024 0.002,0.055 0.005,0.078 l 0.065,-0.113 c 8.165,-3.995 66.846,-60.927 66.846,-60.927 z"
         p-id="1905"
         id="path845"
         style="fill:#656565;fill-opacity:1">
        <animate
           attributeName="fill"
           values="white; #656565; white"
           dur="2s"
           fill="freeze"
           repeatCount="indefinite" />
      </path>
      <path
         d="m 739.258,586.766 c 0,0 6.249,45.176 15.275,51.542 l 104.789,60.5 c 0,0 -92.172,-136.353 -112.277,-189.53 l -8.34,34.445 c 0,0 -62.238,21.801 -196.348,-27.914 l 78.808,45.5 c 0,0 97.469,33.179 118.093,25.457 z"
         p-id="1906"
         id="path847"
         style="fill:#656565;fill-opacity:1">
        <animate
           attributeName="fill"
           values="white; #656565; white"
           dur="2s"
           fill="freeze"
           repeatCount="indefinite" />
      </path>
      <path
         d="M 859.322,698.809 754.533,638.31 c -10.026,-4.634 -52.275,12.542 -52.275,12.542 -3.624,-21.722 -81.093,-89.543 -81.093,-89.543 l -78.809,-45.5 c 110.109,91.286 122.349,156.086 122.349,156.086 l -25.66,24.445 c 56.105,-9.177 220.277,2.469 220.277,2.469 z M 598.121,525.594 635.108,497.782 h 0.024 l -0.012,-0.009 0.013,-0.01 h -0.025 l -37.146,-27.6 c 0,0 -78.517,22.804 -86.03,27.919 l -0.128,0.001 0.064,0.042 -0.065,0.043 h 0.131 c 7.541,5.073 86.187,27.426 86.187,27.426 z"
         p-id="1907"
         id="path849"
         style="fill:#656565;fill-opacity:1">
        <animate
           attributeName="fill"
           values="white; #656565; white"
           dur="2s"
           fill="freeze"
           repeatCount="indefinite" />
      </path>
      <path
         d="m 548.868,739.335 c 0,0 -35.999,28 -37,39 v 121 c 0,0 71.999,-148 108,-192 l -34,10 c 0,0 -50,-43 -74,-183.999 v 90.999 c 0,0 20,101 37,115 z m -37,160 -10e-4,-120.999 c -1,-11 -37,-39.001 -37,-39.001 17,-13.999 37,-115 37,-115 v -91 c -24.001,141 -74,184 -74,184 l -34,-10 c 36,44.001 108.001,192 108.001,192 z"
         p-id="1908"
         id="path851"
         style="fill:#656565;fill-opacity:1">
        <animate
           attributeName="fill"
           values="white; #656565; white"
           dur="2s"
           fill="freeze"
           repeatCount="indefinite" />
      </path>
      <path
         d="m 531.275,586.521 42.579,18.126 0.013,0.021 0.002,-0.015 0.015,0.007 -0.013,-0.022 5.329,-45.97 c 0,0 -59.007,-56.596 -67.193,-60.544 l -0.065,-0.111 c -0.002,0.022 -0.002,0.053 -0.003,0.077 l -0.07,-0.035 0.066,0.113 c -0.624,9.067 19.34,88.353 19.34,88.353 z"
         p-id="1909"
         id="path853"
         style="fill:#656565;fill-opacity:1">
        <animate
           attributeName="fill"
           values="white; #656565; white"
           dur="2s"
           fill="freeze"
           repeatCount="indefinite" />
      </path>
      <path
         d="m 321.544,650.737 c 0,0 -42.248,-17.176 -52.275,-12.542 l -104.789,60.5 c 0,0 164.171,-11.647 220.277,-2.47 l -25.66,-24.445 c 0,0 12.239,-64.801 122.348,-156.085 l -78.808,45.499 c 0,0 -77.469,67.821 -81.093,89.543 z"
         p-id="1910"
         id="path855"
         style="fill:#656565;fill-opacity:1">
        <animate
           attributeName="fill"
           values="white; #656565; white"
           dur="2s"
           fill="freeze"
           repeatCount="indefinite" />
      </path>
      <path
         d="m 164.48,698.694 104.788,-60.5 c 9.026,-6.367 15.276,-51.543 15.276,-51.543 20.623,7.723 118.093,-25.457 118.093,-25.457 l 78.808,-45.5 c -134.11,49.714 -196.349,27.914 -196.349,27.914 l -8.34,-34.446 C 256.65,562.34 164.48,698.694 164.48,698.694 Z m 280.608,-139.599 5.592,45.938 -0.012,0.021 0.014,-0.006 10e-4,0.017 0.013,-0.022 42.476,-18.37 c 0,0 19.51,-79.399 18.836,-88.463 l 0.063,-0.112 c -0.021,0.009 -0.048,0.024 -0.068,0.035 l -0.004,-0.078 -0.065,0.114 c -8.164,3.993 -66.846,60.926 -66.846,60.926 z"
         p-id="1911"
         id="path857"
         style="fill:#656565;fill-opacity:1">
        <animate
           attributeName="fill"
           values="white; #656565; white"
           dur="2s"
           fill="freeze"
           repeatCount="indefinite" />
      </path>
      <path
         d="m 284.61,409.57 c 0,0 -6.25,-45.176 -15.276,-51.542 l -104.789,-60.5 c 0,0 92.173,136.353 112.277,189.53 l 8.34,-34.445 c 0,0 62.238,-21.801 196.347,27.914 l -78.807,-45.5 c 10e-4,0 -97.468,-33.179 -118.092,-25.457 z M 164.546,297.527 269.334,358.026 c 10.027,4.633 52.276,-12.542 52.276,-12.542 3.624,21.722 81.093,89.543 81.093,89.543 l 78.808,45.5 C 371.403,389.241 359.162,324.441 359.162,324.441 l 25.661,-24.445 c -56.106,9.176 -220.277,-2.469 -220.277,-2.469 z"
         p-id="1912"
         id="path859"
         style="fill:#656565;fill-opacity:1">
        <animate
           attributeName="fill"
           values="white; #656565; white"
           dur="2s"
           fill="freeze"
           repeatCount="indefinite" />
      </path>
      <path
         d="m 425.747,470.741 -36.987,27.812 h -0.024 l 0.012,0.009 -0.014,0.01 h 0.026 l 37.147,27.6 c 0,0 78.517,-22.803 86.029,-27.918 l 0.129,-0.001 -0.065,-0.042 c 0.02,-0.014 0.046,-0.029 0.066,-0.042 h -0.132 c -7.541,-5.074 -86.187,-27.428 -86.187,-27.428 z"
         p-id="1913"
         id="path861"
         style="fill:#656565;fill-opacity:1">
        <animate
           attributeName="fill"
           values="white; #656565; white"
           dur="2s"
           fill="freeze"
           repeatCount="indefinite" />
      </path>
    </g>
    <g
       id="g897"
       transform="matrix(0.05167643,0,0,0.05167643,300.79908,221.06578)"
       style="fill:#656565;fill-opacity:1">
      <path
         d="M 511.572,316.734 V 317 c 0.073,-0.044 0.142,-0.089 0.214,-0.133 L 512,317 v -0.266 c 127.394,-77.83 8.078,-196.516 0,-204.324 V 112 l -0.214,0.204 -0.214,-0.204 v 0.41 c -8.078,7.809 -127.394,126.494 0,204.324 z M 287.5,580 c 0,0 21,-21.75 59.75,-10 0,0 36.25,11 58.5,29.25 0,0 52.5,31 64,35 0,0 -81,-66.5 -92.5,-133.5 0,0 -9.75,-77.75 81.75,-71.75 0,0 -10,-44.5 -78.5,-41 0,0 -73,-2.5 -82,82.5 0,0 -2.25,31 35.75,71.75 0,0 -40,-5.25 -46.75,37.75 z"
         p-id="1754"
         id="path882"
         style="fill:#656565;fill-opacity:1">
        <animate
           attributeName="fill"
           values="white; #656565; white"
           dur="2s"
           fill="freeze"
           repeatCount="indefinite" />
      </path>
      <path
         d="m 824.572,530 c 11,-113.5 -45.5,-169 -45.5,-169 98,31 105.5,-91.5 105.5,-91.5 -130,-21.5 -116.5,79.5 -116.5,79.5 -145,-126 -243,-5 -243,-5 -13,24 27.5,48 27.5,48 18.5,-56 80.5,-51.5 80.5,-51.5 145,1.5 142.5,142 142.5,142 1.5,140 -122.5,184 -122.5,184 -112.15,41.643 -138.757,94.765 -141.286,100.34 -2.53,-5.575 -29.136,-58.697 -141.286,-100.34 0,0 -124,-44 -122.5,-184 0,0 -2.5,-140.5 142.5,-142 0,0 62,-4.5 80.5,51.5 0,0 40.5,-24 27.5,-48 0,0 -98,-121 -243,5 0,0 13.5,-101 -116.5,-79.5 0,0 7.5,122.5 105.5,91.5 0,0 -56.5,55.5 -45.5,169 0,0 -36.5,-48 -87,21 0,0 62.5,51 89.5,-8 0,0 13.5,99 114.5,159 0,0 54.25,38.75 96.5,54.25 0,0 57.766,21.61 99.072,128.65 v 1.099 c 0.071,-0.186 0.143,-0.364 0.214,-0.549 0.071,0.185 0.143,0.363 0.214,0.549 V 884.9 c 41.305,-107.04 99.072,-128.65 99.072,-128.65 42.25,-15.5 96.5,-54.25 96.5,-54.25 101,-60 114.5,-159 114.5,-159 27,59 89.5,8 89.5,8 -50.5,-69 -87,-21 -87,-21 z"
         p-id="1755"
         id="path884"
         style="fill:#656565;fill-opacity:1">
        <animate
           attributeName="fill"
           values="white; #656565; white"
           dur="2s"
           fill="freeze"
           repeatCount="indefinite" />
      </path>
      <path
         d="m 553.822,634.25 c 11.5,-4 64,-35 64,-35 22.25,-18.25 58.5,-29.25 58.5,-29.25 38.75,-11.75 59.75,10 59.75,10 -6.75,-43 -46.75,-37.75 -46.75,-37.75 38,-40.75 35.75,-71.75 35.75,-71.75 -9,-85 -82,-82.5 -82,-82.5 -68.5,-3.5 -78.5,41 -78.5,41 91.5,-6 81.75,71.75 81.75,71.75 -11.5,67 -92.5,133.5 -92.5,133.5 z"
         p-id="1756"
         id="path886"
         style="fill:#656565;fill-opacity:1">
        <animate
           attributeName="fill"
           values="white; #656565; white"
           dur="2s"
           fill="freeze"
           repeatCount="indefinite" />
      </path>
    </g>
    <path
       d="m 256.14011,256.93887 c 0,0 -3.10456,-4.74111 0.76931,-8.47948 l 0.004,0.0141 c 0,0 3.17092,-2.94292 6.10867,-1.48555 2.93776,1.45743 2.06225,4.21396 1.49262,5.47631 0,0 5.48091,-1.56941 6.68673,-7.51659 0,0 0.71489,-3.16746 -0.66208,-7.74165 0,0 2.55442,1.15652 5.44246,7.04071 0,0 -0.92129,-8.05042 -7.58223,-13.04975 0,0 -5.47015,-4.20243 -11.95456,-3.9781 0,0 13.48594,5.78714 8.86922,14.81713 0,0 -2.55364,5.05917 -7.7281,3.57353 l 0.0101,-0.0108 c 0,0 -4.13412,-1.27465 -4.34083,-4.54748 -0.2067,-3.27282 2.61829,-3.89294 3.9963,-4.03076 0,0 -4.09965,-3.96188 -9.85299,-2.03259 0,0 -3.10059,0.96465 -6.37341,4.44418 0,0 -0.27559,-2.79043 3.37618,-8.23371 0,0 -6.51124,4.82306 -7.5103,13.09129 0,0 -0.90433,6.83845 2.53215,12.34199 0,0 -1.73116,-14.57276 8.39742,-15.08952 0,0 5.6581,-0.31802 6.95875,4.90595 l -0.0143,-0.003 c 0,0 0.96319,4.21757 -1.7678,6.03302 -2.73105,1.81544 -4.68054,-0.32102 -5.48892,-1.44549 0,0 -1.38126,5.53129 3.16622,9.54918 0,0 2.38569,2.20286 7.03549,3.29747 0,0 -2.27883,1.63391 -8.81869,1.19295 0,0 7.43252,3.22735 15.09257,-0.0415 0,0 6.37449,-2.63606 9.42242,-8.36393 0,5e-5 -11.75479,8.78566 -17.26665,0.27244 z"
       p-id="1611"
       id="path899"
       style="fill:#656565;fill-opacity:1;stroke-width:0.0516764">
      <animate
         attributeName="fill"
         values="white; #656565; white"
         dur="2s"
         fill="freeze"
         repeatCount="indefinite" />
    </path>
    <g
       id="g920"
       transform="matrix(0.05167643,0,0,0.05167643,437.37818,220.39396)"
       style="fill:#656565;fill-opacity:1">
      <path
         d="m 512,123 c 0,0 -148,105 -257,239 0,0 31,109 65,164 0,0 126.999,-138 192,-153 0,0 65,52 79,103 0,0 -83,77 -91,84 0,0 14,21 31,38 0,0 109,-77 135,-114 0,0 -56.001,-111 -154,-205 0,0 -137,113 -165,140 0,0 6.999,-92 165,-253 0,0 196,207 284,457 0,0 52,-62.334 80,-111 0,0 -123,-224 -364,-389 z"
         p-id="2056"
         id="path908"
         style="fill:#656565;fill-opacity:1">
        <animate
           attributeName="fill"
           values="white; #656565; white"
           dur="2s"
           fill="freeze"
           repeatCount="indefinite" />
      </path>
      <path
         d="m 512,651 c 0,0 -65,-52 -79,-103 0,0 83,-77 91,-84 0,0 -14,-21 -31,-38 0,0 -109,77 -135,114 0,0 56.001,111 154,205 0,0 137,-113 165,-140 0,0 -6.999,92 -165,253 0,0 -196,-207 -284,-457 0,0 -52,62.334 -80,111 0,0 123,224 364,389 0,0 148,-105 257,-239 0,0 -31,-109 -65,-164 0,0 -126.999,138 -192,153 z"
         p-id="2057"
         id="path910"
         style="fill:#656565;fill-opacity:1">
        <animate
           attributeName="fill"
           values="white; #656565; white"
           dur="2s"
           fill="freeze"
           repeatCount="indefinite" />
      </path>
    </g>
    <g
       id="g940"
       transform="matrix(0.05167643,0,0,0.05167643,89.48614,220.35594)"
       style="fill:#656565;fill-opacity:1">
      <path
         d="M 889.071,478.092 C 886.071,359.598 772.667,152.667 542,137.334 311.333,122.001 181.5,300 175,340.5 c -6.5,40.5 23.5,53.597 23.5,53.597 30,20.597 62.103,0 62.103,0 C 377.872,234.858 531.975,258.669 531.975,258.669 826.616,296.002 816.667,566.667 816.667,566.667 815.334,752 652.5,830 652.5,830 809,730.5 772,568 772,568 727,338 512,346.667 512,346.667 c -78.667,2 -108.333,25 -108.333,25 C 374,394 386,427 386,427 c 11,45 58,36 58,36 49,-19 87.975,-10 87.975,-10 C 725.949,486 714,664.667 714,664.667 691.333,852.668 512,854 512,854 416.667,863.333 292.102,794.576 292.102,794.576 329.6,887.571 531.575,889.071 531.575,889.071 924.039,835.074 889.071,478.092 889.071,478.092 Z"
         p-id="1314"
         id="path922"
         style="fill:#656565;fill-opacity:1">
        <animate
           attributeName="fill"
           values="white; #656565; white"
           dur="2s"
           fill="freeze"
           repeatCount="indefinite" />
      </path>
      <path
         d="m 498,644 c 0,0 36.5,-4 45.5,49.5 0,0 16,45.5 65.5,29.5 0,0 37,-9.5 28,-71.5 0,0 -19,-87.5 -125,-92 0,0 -114.5,-5.961 -136.5,124.77 0,0 -6,133.23 136.5,144.73 0,0 69.5,-1 108,-55.5 0,0 8.833,-10.334 7.5,-14 0,0 0.5,-3 -6.5,2.5 -7,5.5 -25.5,48.5 -109,47 0,0 -71,-3 -88.5,-81 0,0 -9.5,-80 74.5,-84 z"
         p-id="1315"
         id="path924"
         style="fill:#656565;fill-opacity:1">
        <animate
           attributeName="fill"
           values="white; #656565; white"
           dur="2s"
           fill="freeze"
           repeatCount="indefinite" />
      </path>
      <path
         d="m 189,518.735 m -53,0 a 53,53 0 1 0 106,0 53,53 0 1 0 -106,0 z"
         p-id="1316"
         id="path926"
         style="fill:#656565;fill-opacity:1">
        <animate
           attributeName="fill"
           values="white; #656565; white"
           dur="2s"
           fill="freeze"
           repeatCount="indefinite" />
      </path>
      <path
         d="m 257,684 m -37,0 a 37,37 0 1 0 74,0 37,37 0 1 0 -74,0 z"
         p-id="1317"
         id="path928"
         style="fill:#656565;fill-opacity:1">
        <animate
           attributeName="fill"
           values="white; #656565; white"
           dur="2s"
           fill="freeze"
           repeatCount="indefinite" />
      </path>
    </g>
    <g
       id="g954"
       transform="matrix(0.05167643,0,0,0.05167643,22.982185,220.32944)">
      <path
         d="m 724,458.67 c 0,0 -55.333,-42.667 -76,-133.333 0,0 -35.333,26 -41.333,79.333 0,0 -4.001,44.667 28.666,72.667 0,0 16,23.334 18,41.334 0,0 -62,-51.334 -77.333,-115.334 0,0 -14.001,-32.667 13.333,-116.667 0,0 -77.333,48 -89.333,103.333 0,0 -7.69,35.452 27.333,69.333 0,0 -46.667,-26.666 -45.333,-73.333 0,0 -1.334,-44 71.333,-101.333 0,0 34,-25.333 6.667,-80.667 0,0 -42,-73.342 -64,-88.004 0,0 10,56 -77,155 0,0 -27,39 -28,82 0,0 -6,77 121,120 0,0 153,46 160,139 0,0 27,84 -69,132 0,0 -91,46 -159,-9 0,0 -43.666,-60.666 27.667,-108.333 0,0 -82,-25.666 -101,48.667 0,0 -7.667,52.667 64.667,85 0,0 84,42.034 185,1.684 101,-40.35 124.664,-96.35 128.997,-141.017 0,0 9,-44 -22,-109 0,0 75,39.334 74,105.667 0,0 6.334,56.994 -93.333,112.661 -99.667,55.667 -63.332,26.339 -195.998,118.339 0,0 -85,-57.917 -222,-126.167 0,0 -66.667,-34.166 -71.667,-105.166 0,0 -7,-66.333 81.333,-118.667 0,0 -52.667,57.667 -43.667,113 0,0 3.667,75.167 118.5,126.333 0,0 -58.5,-50.001 -39.75,-128.501 0,0 25.53,-116.166 175.057,-122.166 0,0 -162.141,-48.661 -158.807,-154.995 0,0 -17,44.323 -96,138.323 0,0 -54,62.004 -71,128.004 0,0 -16,59.333 9,88.333 0,0 20,35.5 122.5,89 0,0 73,37 196.5,134.5 0,0 43.333,-53.166 197.333,-137.166 0,0 101.333,-46 120,-128.667 10e-4,0.002 21.335,-91.328 -105.332,-185.995 z"
         p-id="1166"
         id="path942"
         style="fill:#656565;fill-opacity:1">
        <animate
           attributeName="fill"
           values="white; #656565; white"
           dur="2s"
           fill="freeze"
           repeatCount="indefinite" />
      </path>
      <path
         d="M 623.5,634 C 620,559 557,537 557,537 438.5,501 406.5,598.5 406.5,598.5 507,553.5 545,626 545,626 c 28,42 -5,86 -5,86 82,-26 83.5,-78 83.5,-78 z"
         p-id="1167"
         id="path944"
         style="fill:#656565;fill-opacity:1">
        <animate
           attributeName="fill"
           values="white; #656565; white"
           dur="2s"
           fill="freeze"
           repeatCount="indefinite" />
      </path>
    </g>
  </g>
</svg>
